<?xml version="1.0" encoding="UTF-8"?>
<svg width="447px" height="649px" viewBox="0 0 447 649" version="1.1" xmlns="http://www.w3.org/2000/svg" xmlns:xlink="http://www.w3.org/1999/xlink">
    <!-- Generator: Sketch 53.2 (72643) - https://sketchapp.com -->
    <title>greeting_sp@2x</title>
    <desc>Created with Sketch.</desc>
    <g id="greeting_sp" stroke="none" stroke-width="1" fill="none" fill-rule="evenodd">
        <rect id="Rectangle" fill="#FCFBE7" x="-507" y="25" width="954" height="602"></rect>
        <ellipse id="Oval" fill="#E3C877" cx="75.5" cy="27" rx="5.5" ry="15"></ellipse>
        <ellipse id="Oval" fill="#E3C877" cx="263.5" cy="626" rx="5.5" ry="15"></ellipse>
        <ellipse id="Oval" fill="#3B3831" transform="translate(395.500000, 628.500000) scale(-1, 1) translate(-395.500000, -628.500000) " cx="395.5" cy="628.5" rx="5.5" ry="20.5"></ellipse>
        <ellipse id="Oval" fill="#3B3831" transform="translate(183.500000, 24.500000) scale(-1, 1) translate(-183.500000, -24.500000) " cx="183.5" cy="24.5" rx="5.5" ry="20.5"></ellipse>
        <ellipse id="Oval" fill="#3B3831" transform="translate(5.500000, 625.500000) scale(-1, 1) translate(-5.500000, -625.500000) " cx="5.5" cy="625.5" rx="5.5" ry="20.5"></ellipse>
        <ellipse id="Oval" fill="#E14B30" transform="translate(224.500000, 26.000000) scale(-1, 1) translate(-224.500000, -26.000000) " cx="224.5" cy="26" rx="5.5" ry="10"></ellipse>
        <ellipse id="Oval" fill="#9D6A2A" transform="translate(247.500000, 26.000000) scale(-1, 1) translate(-247.500000, -26.000000) " cx="247.5" cy="26" rx="5.5" ry="10"></ellipse>
        <ellipse id="Oval" fill="#D6CBBD" transform="translate(270.500000, 25.000000) scale(-1, 1) translate(-270.500000, -25.000000) " cx="270.5" cy="25" rx="5.5" ry="5"></ellipse>
        <ellipse id="Oval" fill="#A62812" transform="translate(293.500000, 25.000000) scale(-1, 1) translate(-293.500000, -25.000000) " cx="293.5" cy="25" rx="5.5" ry="5"></ellipse>
        <ellipse id="Oval" fill="#E14B30" transform="translate(34.500000, 629.000000) scale(-1, 1) translate(-34.500000, -629.000000) " cx="34.5" cy="629" rx="5.5" ry="10"></ellipse>
        <ellipse id="Oval" fill="#9D6A2A" transform="translate(57.500000, 629.000000) scale(-1, 1) translate(-57.500000, -629.000000) " cx="57.5" cy="629" rx="5.5" ry="10"></ellipse>
        <ellipse id="Oval" fill="#D6CBBD" transform="translate(80.500000, 628.000000) scale(-1, 1) translate(-80.500000, -628.000000) " cx="80.5" cy="628" rx="5.5" ry="5"></ellipse>
        <ellipse id="Oval" fill="#A62812" transform="translate(103.500000, 628.000000) scale(-1, 1) translate(-103.500000, -628.000000) " cx="103.5" cy="628" rx="5.5" ry="5"></ellipse>
        <ellipse id="Oval" fill="#E14B30" transform="translate(299.500000, 628.000000) scale(-1, 1) translate(-299.500000, -628.000000) " cx="299.5" cy="628" rx="5.5" ry="10"></ellipse>
        <ellipse id="Oval" fill="#9D6A2A" transform="translate(322.500000, 628.000000) scale(-1, 1) translate(-322.500000, -628.000000) " cx="322.5" cy="628" rx="5.5" ry="10"></ellipse>
        <ellipse id="Oval" fill="#D6CBBD" transform="translate(345.500000, 627.000000) scale(-1, 1) translate(-345.500000, -627.000000) " cx="345.5" cy="627" rx="5.5" ry="5"></ellipse>
        <ellipse id="Oval" fill="#A62812" transform="translate(368.500000, 627.000000) scale(-1, 1) translate(-368.500000, -627.000000) " cx="368.5" cy="627" rx="5.5" ry="5"></ellipse>
        <ellipse id="Oval" fill="#A62812" transform="translate(17.500000, 24.000000) scale(-1, 1) translate(-17.500000, -24.000000) " cx="17.5" cy="24" rx="5.5" ry="5"></ellipse>
        <ellipse id="Oval" fill="#042641" transform="translate(152.500000, 26.000000) scale(-1, 1) translate(-152.500000, -26.000000) " cx="152.5" cy="26" rx="5.5" ry="5"></ellipse>
        <text id="一般家庭向け及び高齢者・障がい者施設等へ" fill="#222222" font-family="HiraKakuPro-W3, Hiragino Kaku Gothic Pro" font-size="20" font-weight="300" line-spacing="30">
            <tspan x="23" y="191">一般家庭向け及び高齢者・障がい者施設等へ</tspan>
            <tspan x="23" y="221">の食材・惣菜の宅配サービスです。</tspan>
            <tspan x="23" y="251"></tspan>
            <tspan x="23" y="281">市場より仕入れた新鮮野菜や当日製造の</tspan>
            <tspan x="23" y="311">お惣菜（お弁当）など、皆様の食卓を</tspan>
            <tspan x="23" y="341">彩る献立をお届けしています。</tspan>
            <tspan x="23" y="371"></tspan>
            <tspan x="23" y="401">小さなお子様のいるご家庭など買い物に</tspan>
            <tspan x="23" y="431">行くことが難しい方、一人暮らしなどで</tspan>
            <tspan x="23" y="461">調理するのが大変な方、施設や寮の食事まで</tspan>
            <tspan x="23" y="491">食事なら何でも宅配致します。</tspan>
            <tspan x="23" y="521"></tspan>
            <tspan x="23" y="551">お気軽にご相談ください！</tspan>
        </text>
        <text id="ライフタイムバリューとは" fill="#222222" font-family="HiraKakuPro-W3, Hiragino Kaku Gothic Pro" font-size="25" font-weight="300">
            <tspan x="84.5" y="88">ライフタイムバリューとは</tspan>
        </text>
        <rect id="Rectangle" fill="#069925" x="178" y="111" width="94" height="3"></rect>
    </g>
</svg>