<?xml version="1.0" encoding="UTF-8"?>
<svg width="1000px" height="450px" viewBox="0 0 1000 450" version="1.1" xmlns="http://www.w3.org/2000/svg" xmlns:xlink="http://www.w3.org/1999/xlink">
    <!-- Generator: Sketch 53.2 (72643) - https://sketchapp.com -->
    <title>greeting</title>
    <desc>Created with Sketch.</desc>
    <g id="greeting" stroke="none" stroke-width="1" fill="none" fill-rule="evenodd">
        <rect id="Rectangle" fill="#FCFBE7" x="23" y="25" width="954" height="400"></rect>
        <ellipse id="Oval" fill="#E3C877" cx="120.5" cy="27" rx="5.5" ry="15"></ellipse>
        <ellipse id="Oval" fill="#E3C877" cx="305.5" cy="422" rx="5.5" ry="15"></ellipse>
        <ellipse id="Oval" fill="#E3C877" cx="605.5" cy="27" rx="5.5" ry="15"></ellipse>
        <ellipse id="Oval" fill="#E3C877" cx="805.5" cy="422" rx="5.5" ry="15"></ellipse>
        <ellipse id="Oval" fill="#3B3831" transform="translate(355.500000, 24.500000) scale(-1, 1) translate(-355.500000, -24.500000) " cx="355.5" cy="24.5" rx="5.5" ry="20.5"></ellipse>
        <ellipse id="Oval" fill="#3B3831" transform="translate(937.500000, 424.500000) scale(-1, 1) translate(-937.500000, -424.500000) " cx="937.5" cy="424.5" rx="5.5" ry="20.5"></ellipse>
        <ellipse id="Oval" fill="#3B3831" transform="translate(713.500000, 24.500000) scale(-1, 1) translate(-713.500000, -24.500000) " cx="713.5" cy="24.5" rx="5.5" ry="20.5"></ellipse>
        <ellipse id="Oval" fill="#3B3831" transform="translate(63.500000, 421.500000) scale(-1, 1) translate(-63.500000, -421.500000) " cx="63.5" cy="421.5" rx="5.5" ry="20.5"></ellipse>
        <ellipse id="Oval" fill="#3B3831" transform="translate(547.500000, 421.500000) scale(-1, 1) translate(-547.500000, -421.500000) " cx="547.5" cy="421.5" rx="5.5" ry="20.5"></ellipse>
        <ellipse id="Oval" fill="#E14B30" transform="translate(754.500000, 26.000000) scale(-1, 1) translate(-754.500000, -26.000000) " cx="754.5" cy="26" rx="5.5" ry="10"></ellipse>
        <ellipse id="Oval" fill="#9D6A2A" transform="translate(777.500000, 26.000000) scale(-1, 1) translate(-777.500000, -26.000000) " cx="777.5" cy="26" rx="5.5" ry="10"></ellipse>
        <ellipse id="Oval" fill="#D6CBBD" transform="translate(800.500000, 25.000000) scale(-1, 1) translate(-800.500000, -25.000000) " cx="800.5" cy="25" rx="5.5" ry="5"></ellipse>
        <ellipse id="Oval" fill="#A62812" transform="translate(823.500000, 25.000000) scale(-1, 1) translate(-823.500000, -25.000000) " cx="823.5" cy="25" rx="5.5" ry="5"></ellipse>
        <ellipse id="Oval" fill="#E14B30" transform="translate(576.500000, 425.000000) scale(-1, 1) translate(-576.500000, -425.000000) " cx="576.5" cy="425" rx="5.5" ry="10"></ellipse>
        <ellipse id="Oval" fill="#9D6A2A" transform="translate(599.500000, 425.000000) scale(-1, 1) translate(-599.500000, -425.000000) " cx="599.5" cy="425" rx="5.5" ry="10"></ellipse>
        <ellipse id="Oval" fill="#D6CBBD" transform="translate(622.500000, 424.000000) scale(-1, 1) translate(-622.500000, -424.000000) " cx="622.5" cy="424" rx="5.5" ry="5"></ellipse>
        <ellipse id="Oval" fill="#A62812" transform="translate(645.500000, 424.000000) scale(-1, 1) translate(-645.500000, -424.000000) " cx="645.5" cy="424" rx="5.5" ry="5"></ellipse>
        <ellipse id="Oval" fill="#E14B30" transform="translate(28.500000, 26.000000) scale(-1, 1) translate(-28.500000, -26.000000) " cx="28.5" cy="26" rx="5.5" ry="10"></ellipse>
        <ellipse id="Oval" fill="#9D6A2A" transform="translate(51.500000, 26.000000) scale(-1, 1) translate(-51.500000, -26.000000) " cx="51.5" cy="26" rx="5.5" ry="10"></ellipse>
        <ellipse id="Oval" fill="#D6CBBD" transform="translate(74.500000, 25.000000) scale(-1, 1) translate(-74.500000, -25.000000) " cx="74.5" cy="25" rx="5.5" ry="5"></ellipse>
        <ellipse id="Oval" fill="#A62812" transform="translate(97.500000, 25.000000) scale(-1, 1) translate(-97.500000, -25.000000) " cx="97.5" cy="25" rx="5.5" ry="5"></ellipse>
        <ellipse id="Oval" fill="#D6CBBD" transform="translate(218.500000, 26.000000) scale(-1, 1) translate(-218.500000, -26.000000) " cx="218.5" cy="26" rx="5.5" ry="5"></ellipse>
        <ellipse id="Oval" fill="#A62812" transform="translate(241.500000, 26.000000) scale(-1, 1) translate(-241.500000, -26.000000) " cx="241.5" cy="26" rx="5.5" ry="5"></ellipse>
        <ellipse id="Oval" fill="#E14B30" transform="translate(841.500000, 424.000000) scale(-1, 1) translate(-841.500000, -424.000000) " cx="841.5" cy="424" rx="5.5" ry="10"></ellipse>
        <ellipse id="Oval" fill="#9D6A2A" transform="translate(864.500000, 424.000000) scale(-1, 1) translate(-864.500000, -424.000000) " cx="864.5" cy="424" rx="5.5" ry="10"></ellipse>
        <ellipse id="Oval" fill="#D6CBBD" transform="translate(887.500000, 423.000000) scale(-1, 1) translate(-887.500000, -423.000000) " cx="887.5" cy="423" rx="5.5" ry="5"></ellipse>
        <ellipse id="Oval" fill="#A62812" transform="translate(910.500000, 423.000000) scale(-1, 1) translate(-910.500000, -423.000000) " cx="910.5" cy="423" rx="5.5" ry="5"></ellipse>
        <ellipse id="Oval" fill="#E14B30" transform="translate(478.500000, 25.000000) scale(-1, 1) translate(-478.500000, -25.000000) " cx="478.5" cy="25" rx="5.5" ry="10"></ellipse>
        <ellipse id="Oval" fill="#9D6A2A" transform="translate(501.500000, 25.000000) scale(-1, 1) translate(-501.500000, -25.000000) " cx="501.5" cy="25" rx="5.5" ry="10"></ellipse>
        <ellipse id="Oval" fill="#D6CBBD" transform="translate(524.500000, 24.000000) scale(-1, 1) translate(-524.500000, -24.000000) " cx="524.5" cy="24" rx="5.5" ry="5"></ellipse>
        <ellipse id="Oval" fill="#A62812" transform="translate(547.500000, 24.000000) scale(-1, 1) translate(-547.500000, -24.000000) " cx="547.5" cy="24" rx="5.5" ry="5"></ellipse>
        <ellipse id="Oval" fill="#E14B30" transform="translate(149.500000, 427.000000) scale(-1, 1) translate(-149.500000, -427.000000) " cx="149.5" cy="427" rx="5.5" ry="10"></ellipse>
        <ellipse id="Oval" fill="#9D6A2A" transform="translate(172.500000, 427.000000) scale(-1, 1) translate(-172.500000, -427.000000) " cx="172.5" cy="427" rx="5.5" ry="10"></ellipse>
        <ellipse id="Oval" fill="#D6CBBD" transform="translate(195.500000, 426.000000) scale(-1, 1) translate(-195.500000, -426.000000) " cx="195.5" cy="426" rx="5.5" ry="5"></ellipse>
        <ellipse id="Oval" fill="#A62812" transform="translate(218.500000, 426.000000) scale(-1, 1) translate(-218.500000, -426.000000) " cx="218.5" cy="426" rx="5.5" ry="5"></ellipse>
        <ellipse id="Oval" fill="#042641" transform="translate(682.500000, 26.000000) scale(-1, 1) translate(-682.500000, -26.000000) " cx="682.5" cy="26" rx="5.5" ry="5"></ellipse>
        <ellipse id="Oval" fill="#042641" transform="translate(195.500000, 26.000000) scale(-1, 1) translate(-195.500000, -26.000000) " cx="195.5" cy="26" rx="5.5" ry="5"></ellipse>
        <text id="一般家庭向け及び高齢者・障がい者施設等へ" fill="#222222" font-family="YuGo-Medium, YuGothic" font-size="20" font-weight="400" line-spacing="25">
            <tspan x="159" y="163">一般家庭向け及び高齢者・障がい者施設等への食材・惣菜の宅配サービスです。</tspan>
            <tspan x="159" y="188"></tspan>
            <tspan x="159" y="213">市場より仕入れた新鮮野菜や当日製造のお惣菜（お弁当）など、</tspan>
            <tspan x="159" y="238">皆様の食卓を彩る献立をお届けしています。</tspan>
            <tspan x="159" y="263"></tspan>
            <tspan x="159" y="288">小さなお子様のいるご家庭など買い物に行くことが難しい方、一人暮らしなどで</tspan>
            <tspan x="159" y="313">調理するのが大変な方、施設や寮の食事まで、食事なら何でも宅配致します。</tspan>
            <tspan x="159" y="338"></tspan>
            <tspan x="159" y="363">お気軽にご相談ください！</tspan>
        </text>
        <text id="ライフタイムバリューとは" fill="#222222" font-family="YuGo-Medium, YuGothic" font-size="25" font-weight="400">
            <tspan x="358.5" y="88">ライフタイムバリューとは</tspan>
        </text>
        <rect id="Rectangle" fill="#069925" x="459" y="107" width="94" height="3"></rect>
    </g>
</svg>